<?xml version="1.0" encoding="UTF-8"?>
<svg version="1.1" xmlns="http://www.w3.org/2000/svg" width="1024" height="1024">
<path d="M0 0 C337.92 0 675.84 0 1024 0 C1024 337.92 1024 675.84 1024 1024 C686.08 1024 348.16 1024 0 1024 C0 686.08 0 348.16 0 0 Z " fill="#204F70" transform="translate(0,0)"/>
<path d="M0 0 C18.1358664 3.0226444 36.31621511 22.09007844 50.21484375 33.53076172 C52.74188241 35.61059195 55.27768406 37.67966028 57.8125 39.75 C58.67875 40.46027344 59.545 41.17054688 60.4375 41.90234375 C62.16341791 43.31517594 63.89265902 44.72395709 65.625 46.12890625 C83.88078963 60.96173532 100.91362806 76.83337996 117.5625 93.4375 C118.40983704 94.28081879 118.40983704 94.28081879 119.27429199 95.14117432 C124.87136216 100.71808771 130.40040119 106.30381636 135.53491211 112.31665039 C137.73560768 114.84519496 140.10149546 117.15793086 142.5 119.5 C146.88657258 123.8346517 151.00585254 128.30375631 155 133 C157.1207558 135.46201002 159.2478123 137.91854693 161.375 140.375 C161.94025391 141.02903809 162.50550781 141.68307617 163.08789062 142.35693359 C166.92547298 146.78874367 170.82334297 151.15721689 174.8046875 155.4609375 C177.3721488 158.43042121 179.76464027 161.51066542 182.16210938 164.61816406 C183.89438282 166.86312417 185.64134374 169.0955733 187.39453125 171.32421875 C195.75532141 181.98268596 203.77660439 192.78650137 211.3984375 203.984375 C211.98488037 204.84554932 212.57132324 205.70672363 213.17553711 206.59399414 C214.32854551 208.29115476 215.47794642 209.99077323 216.62329102 211.69311523 C217.14850342 212.46856689 217.67371582 213.24401855 218.21484375 214.04296875 C218.68011475 214.73414795 219.14538574 215.42532715 219.62475586 216.13745117 C220.07858643 216.75209229 220.53241699 217.3667334 221 218 C221.38048996 218.52573608 221.76097992 219.05147217 222.15299988 219.59313965 C224.98438799 221.74980852 227.40836567 221.37406019 230.92724609 221.37231445 C231.62856659 221.37596512 232.32988708 221.37961578 233.05245972 221.38337708 C235.376364 221.39149507 237.69957287 221.37784908 240.0234375 221.36328125 C241.64710489 221.36276221 243.27077292 221.36328161 244.8944397 221.36479187 C248.30586071 221.36470205 251.71704592 221.35426435 255.12841797 221.33618164 C259.46655555 221.31367444 263.80434316 221.31291656 268.14252281 221.31969929 C271.50236018 221.3230718 274.86212029 221.31634516 278.2219429 221.30657005 C279.81886005 221.30276034 281.41578587 221.30155197 283.01270676 221.3031559 C292.51076928 221.30474867 301.63464567 220.74236439 311 219 C312.9995241 218.66382374 314.99939906 218.32970746 317 218 C309.34019317 235.38654566 289.39444938 242.7490172 273.02832031 249.10961914 C253.56806929 256.34744434 233.40806602 259.68954714 212.921875 262.57519531 C210.33637976 262.95109452 207.76263394 263.3642613 205.1875 263.8046875 C171.8543055 269.4518929 138.18910611 269.46857556 104.49021578 269.43590808 C99.46589316 269.43276637 94.44159738 269.4389621 89.41727865 269.44494683 C76.87618952 269.45965858 64.33516566 269.45627919 51.79407983 269.44408352 C40.99160442 269.43413868 30.1893 269.44713881 19.38685091 269.47101771 C8.18261311 269.49559081 -3.02156323 269.50457727 -14.22583163 269.49836498 C-20.47160625 269.49503179 -26.71723943 269.4971646 -32.96299362 269.51461601 C-58.28870839 269.57876642 -83.01220693 269.52804408 -108 265 C-109.56016256 264.74073159 -111.12069868 264.48369296 -112.68173218 264.22972107 C-136.45716849 260.20045309 -162.59886692 249.51953007 -177.6015625 229.90625 C-178.74332466 228.27706891 -179.8729277 226.63937789 -181 225 C-181.66 224.67 -182.32 224.34 -183 224 C-183 224.66 -183 225.32 -183 226 C-190.5979963 230.80234529 -197.06638569 232.16236617 -206 231 C-213.48908532 229.1591714 -219.99342721 224.79155148 -226.5078125 220.8046875 C-236.59337736 215.59268418 -250.23817947 215.21397153 -261.1875 217.9375 C-267.12318835 220.0648009 -272.46791094 223.690164 -277.77734375 227.0390625 C-283.98545982 230.81660707 -290.88737845 231.3162692 -298 230 C-303.62884793 228.01782329 -308.8090932 224.90877315 -314 222 C-323.62913423 216.73722994 -334.72757831 216.30537246 -345.3359375 218.77734375 C-352.50839668 221.47903414 -358.51164632 225.96573071 -364.61328125 230.50390625 C-377.9201909 240.39859507 -394.09886522 250.14062027 -411 251 C-411 250.01 -411 249.02 -411 248 C-410.3608667 247.78907715 -409.7217334 247.5781543 -409.06323242 247.36083984 C-393.82106403 242.29523415 -380.99444844 237.21465133 -368.1796875 227.37890625 C-354.45975683 217.11424068 -342.61973722 210.80175213 -325 213 C-317.18281343 215.05475114 -310.34669692 219.36191157 -303.49609375 223.546875 C-297.94202744 226.78022816 -292.26260697 226.67455253 -286 226 C-282.37676869 224.76565394 -279.25271956 223.00167358 -276 221 C-274.29166667 219.95833333 -272.58333333 218.91666667 -270.875 217.875 C-269.75738281 217.15957031 -269.75738281 217.15957031 -268.6171875 216.4296875 C-261.88254975 212.75076599 -255.97818445 211.4409025 -248.3125 211.5 C-247.43327881 211.50644531 -246.55405762 211.51289062 -245.64819336 211.51953125 C-233.61509531 211.85479491 -224.53024752 216.92164831 -214.6796875 223.328125 C-210.28261843 226.07148588 -206.47383197 226.21252032 -201.4375 226.25 C-200.77169922 226.270625 -200.10589844 226.29125 -199.41992188 226.3125 C-193.57311734 226.35708955 -188.50514089 224.88503985 -183 223 C-183.57947388 221.66098633 -183.57947388 221.66098633 -184.1706543 220.29492188 C-186.01393884 216.03181318 -187.85179721 211.76637839 -189.6875 207.5 C-190.02535522 206.71491058 -190.36321045 205.92982117 -190.71130371 205.12094116 C-195.53155467 193.90570441 -200.20609291 182.6422021 -204.75 171.3125 C-210.71400223 156.45648895 -216.93064364 141.65559027 -224.37109375 127.46875 C-224.90863281 126.3240625 -225.44617188 125.179375 -226 124 C-225.67 123.34 -225.34 122.68 -225 122 C-217.6482377 127.55466485 -212.51650331 134.7160733 -207 142 C-206.19949219 143.0415625 -205.39898437 144.083125 -204.57421875 145.15625 C-200.91431082 149.96027423 -197.42405237 154.81600691 -194.125 159.875 C-181.79299294 178.85298562 -181.79299294 178.85298562 -164 192 C-162.00085192 192.05836929 -159.99887109 192.06718894 -158 192 C-157.68289063 191.04222656 -157.36578125 190.08445312 -157.0390625 189.09765625 C-151.61914627 173.38648207 -143.29827536 160.00564226 -133 147 C-132.10151898 145.83567254 -131.20444263 144.67026012 -130.30859375 143.50390625 C-125.50987245 137.28526636 -120.59924105 131.25114681 -115.265625 125.4765625 C-113.4370347 123.47772414 -111.66960629 121.44995322 -109.90625 119.39453125 C-105.6915408 114.5671011 -101.20741884 110.02133977 -96.67675781 105.49145508 C-95.26080053 104.07331716 -93.85301711 102.64703335 -92.4453125 101.22070312 C-86.27458824 95.03708738 -79.82391614 89.44560261 -73 84 C-71.87553761 83.05261711 -70.7559272 82.09939681 -69.64453125 81.13671875 C-24.3907496 42 -24.3907496 42 -11 42 C-11.62326834 49.20888682 -13.08871946 55.98137205 -14.8125 63 C-17.67629052 74.99233766 -19.74910514 87.00745955 -21.56054688 99.19677734 C-22.00929426 102.05928708 -22.51836364 104.90511298 -23.046875 107.75390625 C-24.41019991 115.13070233 -25.25581328 122.53987916 -26 130 C-26.09313477 130.91152832 -26.18626953 131.82305664 -26.28222656 132.76220703 C-27.76626236 147.85158119 -28.18853825 162.8497437 -28.1875 178 C-28.18840637 178.86344025 -28.18931274 179.72688049 -28.19024658 180.6164856 C-28.64453866 197.62312952 -28.64453866 197.62312952 -25.125 214.0625 C-24.79757812 214.96097656 -24.47015625 215.85945312 -24.1328125 216.78515625 C-23.07134865 219.3050175 -23.07134865 219.3050175 -20 221 C-10.1 221.495 -10.1 221.495 0 222 C0 148.74 0 75.48 0 0 Z " fill="#FCFCFD" transform="translate(534,371)"/>
<path d="M0 0 C6.74903437 2.24967812 6.74903437 2.24967812 9.84765625 4.6875 C10.52860352 5.21617676 11.20955078 5.74485352 11.91113281 6.28955078 C12.62108398 6.85399902 13.33103516 7.41844727 14.0625 8 C15.5793978 9.18493332 17.09632516 10.3698288 18.61328125 11.5546875 C19.73017334 12.43398926 19.73017334 12.43398926 20.86962891 13.33105469 C22.74853144 14.80299805 24.63942747 16.25547541 26.54296875 17.6953125 C37.34096638 25.86379624 47.56603804 34.59614684 57.53515625 43.75 C59.58115954 45.61766703 61.65017157 47.44369597 63.75 49.25 C113.43900936 92.5110677 113.43900936 92.5110677 117 116 C117.28895271 120.60702276 117.28323761 125.19772027 117.25 129.8125 C117.24756287 130.47640747 117.24512573 131.14031494 117.24261475 131.82434082 C117.19532564 142.982586 116.75780137 154.11070879 116.125 165.25 C116.08588501 165.95178375 116.04677002 166.6535675 116.00646973 167.37661743 C115.36318966 178.64013404 114.18274838 189.76389038 113 201 C75.71 201 38.42 201 0 201 C0 134.67 0 68.34 0 0 Z " fill="#205170" transform="translate(547,392)"/>
<path d="M0 0 C0.76634766 0.00346436 1.53269531 0.00692871 2.32226562 0.01049805 C16.51239284 0.27473807 29.77046902 4.39330672 43.11328125 8.90625 C44.15311661 9.2578846 44.15311661 9.2578846 45.21395874 9.61662292 C48.0920345 10.59126002 50.96979231 11.5666841 53.84448242 12.55126953 C70.4557704 18.2326362 85.81898896 21.57994597 103.453125 21.234375 C105.77212138 21.20711216 108.09113286 21.18110998 110.41015625 21.15625 C114.01523405 21.11315166 117.61950455 21.06261034 121.22412109 20.99023438 C146.66176196 20.50298992 146.66176196 20.50298992 158.375 26.3125 C159.68401411 26.91580191 160.99483247 27.5151996 162.30712891 28.11132812 C165.85288723 29.73946762 169.36788372 31.42501918 172.87756348 33.12930298 C187.78680526 40.36943571 187.78680526 40.36943571 203.125 46.625 C203.78201904 46.87169434 204.43903809 47.11838867 205.1159668 47.37255859 C216.27817888 51.29323443 227.4896102 52.81415259 239.27905273 52.70361328 C241.30846589 52.68753197 243.33588083 52.70356912 245.36523438 52.72265625 C259.41965983 52.74897063 272.27874513 49.6738085 285.5 45.0625 C286.65508057 44.6691748 287.81016113 44.27584961 289.00024414 43.87060547 C292.46107354 42.69195349 295.91809102 41.50259168 299.375 40.3125 C305.66112651 38.1663094 311.95336947 36.04243221 318.27294922 33.99658203 C320.05270812 33.41738523 321.82597249 32.81828998 323.59765625 32.21484375 C338.22877178 27.79052611 354.13242592 29.73571983 368.64257812 33.59277344 C373.20423215 34.7943242 377.78655709 35.91297799 382.36499023 37.04858398 C387.08801691 38.22413709 391.8057737 39.4201166 396.52270508 40.61987305 C419.15686825 46.11616004 440.00932459 40.19881881 461.12353516 32.11279297 C469.20415701 29.2405008 476.12362162 29.61827284 483.98828125 33.05078125 C486.96153927 34.62256904 489.42326028 36.56217611 492.0390625 38.66015625 C506.41960358 48.83234501 523.11327536 52.42667526 540.484375 49.8515625 C550.86929405 47.46583785 560.73829296 43.09601148 570.3112793 38.4934082 C587.50167241 30.23916202 603.07936909 31.7916913 621.375 35.3125 C621.375 39.6025 621.375 43.8925 621.375 48.3125 C619.26544922 48.07660156 619.26544922 48.07660156 617.11328125 47.8359375 C602.3476906 46.37574712 587.81517112 45.30328429 574.375 52.3125 C571.88429957 53.51977974 569.37943652 54.69653474 566.875 55.875 C566.24916016 56.1743042 565.62332031 56.4736084 564.97851562 56.78198242 C547.10945048 65.199277 524.55159197 67.94801325 505.453125 61.99609375 C496.56594537 58.53919446 488.10216086 53.90929599 479.68066406 49.46411133 C470.06893601 44.66333611 460.80322334 47.50502909 451.1875 50.6875 C449.33943543 51.31911904 447.49176829 51.95190234 445.64453125 52.5859375 C435.89831956 55.84110382 427.24594811 56.67021249 416.9375 56.625 C416.26871826 56.62284485 415.59993652 56.6206897 414.91088867 56.61846924 C404.07848864 56.56255549 393.9363239 55.65222122 383.375 53.3125 C350.39072424 46.06496429 327.08521195 46.81740646 295.41357422 58.00537109 C250.38608917 73.82268852 208.03796203 65.8128037 165.55810547 47.66894531 C161.57422746 45.97125961 157.57718998 44.31079883 153.5625 42.6875 C152.52480469 42.26210938 151.48710937 41.83671875 150.41796875 41.3984375 C142.56299147 38.5952492 135.73268479 38.04257897 127.44140625 38.07421875 C125.07486424 38.05877106 122.7083277 38.04246548 120.34179688 38.02539062 C116.66776264 38.00912847 112.99413468 37.99988915 109.32006836 38.00708008 C87.30246431 38.02356144 66.73193374 35.25161351 45.8125 28.25 C43.65337369 27.55668019 41.49321517 26.86656657 39.33203125 26.1796875 C37.81343506 25.69580566 37.81343506 25.69580566 36.26416016 25.20214844 C30.03924723 23.28533395 23.71732312 21.78571679 17.375 20.3125 C16.74932129 20.1374292 16.12364258 19.9623584 15.47900391 19.78198242 C-7.45721274 14.66404965 -31.98086803 23.65535621 -52.55032349 32.90386963 C-82.79050335 46.46229112 -116.89960762 57.6533784 -149.7578125 46.22265625 C-152.07294913 45.31659303 -154.35459468 44.32545007 -156.625 43.3125 C-156.625 39.3525 -156.625 35.3925 -156.625 31.3125 C-152.34301634 31.84774796 -148.702462 32.94689083 -144.75 34.59375 C-130.36716017 39.45853406 -108.92247017 38.10026044 -94.625 33.3125 C-93.94743652 33.09158691 -93.26987305 32.87067383 -92.57177734 32.64306641 C-79.3562667 28.24172428 -66.92832706 22.19327751 -54.3963623 16.18075562 C-37.34002331 8.02132488 -19.27139652 -0.14606149 0 0 Z " fill="#F6F9FA" transform="translate(280.625,618.6875)"/>
<path d="M0 0 C4.60533935 0.34757278 8.85421126 1.18528812 13.3125 2.375 C21.76460808 4.55997119 30.36713261 5.76877548 39 7 C40.06903564 7.15299561 40.06903564 7.15299561 41.15966797 7.30908203 C58.09339461 9.68680416 74.9296971 10.15427039 92.00195312 10.20532227 C94.06340216 10.21492458 96.12484932 10.22493594 98.18629456 10.23532104 C103.73267874 10.26212162 109.27907121 10.28326408 114.82548332 10.30332303 C120.64038439 10.32533772 126.45526064 10.35264994 132.2701416 10.37937927 C143.25916976 10.42909847 154.24821185 10.4741135 165.23726702 10.51740164 C177.75736793 10.56695267 190.2774439 10.62180398 202.79752064 10.67708123 C228.53165712 10.79058197 254.26581756 10.89748926 280 11 C280 11.33 280 11.66 280 12 C268.12 12.33 256.24 12.66 244 13 C244 13.99 244 14.98 244 16 C242.68 16.66 241.36 17.32 240 18 C240.33 18.66 240.66 19.32 241 20 C240.23671387 19.9685791 239.47342773 19.9371582 238.68701172 19.90478516 C221.35737929 19.28911691 206.48028322 20.18999344 190 26 C188.65271356 26.47131804 187.30537972 26.94250058 185.95800781 27.41357422 C179.99868085 29.50366221 174.04013413 31.59366551 168.11254883 33.77246094 C143.70075139 42.69111221 114.07809727 46.96456871 89 38 C87.77796875 37.63390625 86.5559375 37.2678125 85.296875 36.890625 C74.21389733 33.45817421 63.94007455 28.22770957 53.55810547 23.12475586 C36.73565324 14.40322082 36.73565324 14.40322082 18.421875 10.71875 C17.34292969 10.68136719 16.26398438 10.64398437 15.15234375 10.60546875 C13.46818359 10.55326172 13.46818359 10.55326172 11.75 10.5 C4.77323284 10.28070697 -2.08868801 10.01141151 -9 9 C-9 8.67 -9 8.34 -9 8 C-6.36 7.34 -3.72 6.68 -1 6 C-1.020625 5.195625 -1.04125 4.39125 -1.0625 3.5625 C-1 1 -1 1 0 0 Z " fill="#114360" transform="translate(401,630)"/>
<path d="M0 0 C0.87922119 0.00644531 1.75844238 0.01289062 2.66430664 0.01953125 C14.69740469 0.35479491 23.78225248 5.42164831 33.6328125 11.828125 C39.93740367 15.76160171 48.08551271 15.22718969 55.3125 14.5 C59.1711508 13.51380465 62.71736212 12.20616713 66.3125 10.5 C66.6425 11.16 66.9725 11.82 67.3125 12.5 C66.6525 12.5 65.9925 12.5 65.3125 12.5 C65.3125 13.16 65.3125 13.82 65.3125 14.5 C57.7145037 19.30234529 51.24611431 20.66236617 42.3125 19.5 C34.82341468 17.6591714 28.31907279 13.29155148 21.8046875 9.3046875 C11.71912264 4.09268418 -1.92567947 3.71397153 -12.875 6.4375 C-18.81068835 8.5648009 -24.15541094 12.190164 -29.46484375 15.5390625 C-35.67295982 19.31660707 -42.57487845 19.8162692 -49.6875 18.5 C-55.31634793 16.51782329 -60.4965932 13.40877315 -65.6875 10.5 C-75.31663423 5.23722994 -86.41507831 4.80537246 -97.0234375 7.27734375 C-104.19589668 9.97903414 -110.19914632 14.46573071 -116.30078125 19.00390625 C-129.6076909 28.89859507 -145.78636522 38.64062027 -162.6875 39.5 C-162.6875 38.51 -162.6875 37.52 -162.6875 36.5 C-162.0483667 36.28907715 -161.4092334 36.0781543 -160.75073242 35.86083984 C-145.50856403 30.79523415 -132.68194844 25.71465133 -119.8671875 15.87890625 C-106.14725683 5.61424068 -94.30723722 -0.69824787 -76.6875 1.5 C-68.87031343 3.55475114 -62.03419692 7.86191157 -55.18359375 12.046875 C-49.62952744 15.28022816 -43.95010697 15.17455253 -37.6875 14.5 C-34.06426869 13.26565394 -30.94021956 11.50167358 -27.6875 9.5 C-25.97916667 8.45833333 -24.27083333 7.41666667 -22.5625 6.375 C-21.81742188 5.89804687 -21.07234375 5.42109375 -20.3046875 4.9296875 C-13.57004975 1.25076599 -7.66568445 -0.0590975 0 0 Z " fill="#E2EEF3" transform="translate(285.6875,582.5)"/>
<path d="M0 0 C0.33 0 0.66 0 1 0 C1 47.19 1 94.38 1 143 C18.77875 142.855625 36.5575 142.71125 54.875 142.5625 C63.30522705 142.49784546 63.30522705 142.49784546 71.90576172 142.43188477 C76.92995265 142.38864635 76.92995265 142.38864635 81.95413208 142.34410095 C84.19736276 142.32484052 86.44061066 142.3075279 88.68386841 142.29173279 C92.07559744 142.26747705 95.46722098 142.23710131 98.85888672 142.20532227 C99.86347364 142.19955201 100.86806057 142.19378176 101.90308952 142.18783665 C102.81266977 142.17806262 103.72225002 142.16828859 104.65939331 142.15821838 C105.45397886 142.15176583 106.24856441 142.14531328 107.06722832 142.1386652 C109.0828614 142.11776163 109.0828614 142.11776163 111 141 C111 142.32 111 143.64 111 145 C74.37 145 37.74 145 0 145 C0 97.15 0 49.3 0 0 Z " fill="#224D5F" transform="translate(548,448)"/>
<path d="M0 0 C4.60533935 0.34757278 8.85421126 1.18528812 13.3125 2.375 C18.73384634 3.78206699 24.15959542 4.75980024 29.6875 5.625 C30.4710083 5.74794434 31.2545166 5.87088867 32.06176758 5.99755859 C37.36246537 6.80465844 42.66800663 7.43649921 48 8 C48 8.33 48 8.66 48 9 C46.35 9 44.7 9 43 9 C42.22757731 10.83700789 42.22757731 10.83700789 42 13 C43.35444301 14.77190909 43.35444301 14.77190909 45 16 C44.34 16.66 43.68 17.32 43 18 C41.96359375 17.57847656 40.9271875 17.15695312 39.859375 16.72265625 C38.48963909 16.16913284 37.11984432 15.61575506 35.75 15.0625 C35.06808594 14.78470703 34.38617188 14.50691406 33.68359375 14.22070312 C28.37104457 12.08021001 24.13460712 10.89615232 18.421875 10.71875 C17.34292969 10.68136719 16.26398438 10.64398437 15.15234375 10.60546875 C13.46818359 10.55326172 13.46818359 10.55326172 11.75 10.5 C4.77323284 10.28070697 -2.08868801 10.01141151 -9 9 C-9 8.67 -9 8.34 -9 8 C-6.36 7.34 -3.72 6.68 -1 6 C-1.020625 5.195625 -1.04125 4.39125 -1.0625 3.5625 C-1 1 -1 1 0 0 Z " fill="#174661" transform="translate(401,630)"/>
<path d="M0 0 C0 0.66 0 1.32 0 2 C-1.35013184 2.52025757 -1.35013184 2.52025757 -2.72753906 3.05102539 C-11.57855543 6.50297567 -20.16606214 10.34597829 -28.72406006 14.465271 C-38.31187207 19.06636935 -47.90657586 23.64874756 -57.875 27.375 C-58.57334961 27.6423999 -59.27169922 27.9097998 -59.99121094 28.18530273 C-65.1246826 30.01483796 -70.52794565 31.17164842 -76 31 C-76.99 30.34 -77.98 29.68 -79 29 C-79 28.34 -79 27.68 -79 27 C-74.72070938 25.83292074 -71.34607003 26.35613777 -67 27 C-66.01 26.67 -65.02 26.34 -64 26 C-63.67 25.01 -63.34 24.02 -63 23 C-60.11777174 20.35146593 -57.88525701 18.60707141 -54 18 C-53.0925 17.814375 -52.185 17.62875 -51.25 17.4375 C-50.5075 17.293125 -49.765 17.14875 -49 17 C-49 17.33 -49 17.66 -49 18 C-45.13535319 18.22083696 -42.39711132 17.91631921 -39 16 C-37.6296945 14.02514795 -36.29327628 12.02613283 -35 10 C-32 9 -32 9 -29.75 9.625 C-25.74249079 10.17147853 -23.45279612 8.99199776 -20 7 C-18.94832473 4.42267086 -18.94832473 4.42267086 -19 2 C-18.14728516 2.03480469 -18.14728516 2.03480469 -17.27734375 2.0703125 C-11.20171 2.21231396 -5.85522188 0 0 0 Z " fill="#16435C" transform="translate(252,623)"/>
<path d="M0 0 C3.20813936 1.44883713 6.0284611 3.33320115 8.92260742 5.32568359 C20.56820966 13.33212916 32.30241732 20.12284438 46 24 C45.505 25.485 45.505 25.485 45 27 C37.40679271 25.91758357 31.28740378 23.57338749 24.5625 19.9375 C23.64742676 19.45087891 22.73235352 18.96425781 21.78955078 18.46289062 C14.83213367 14.66816073 8.74733032 10.49545529 3 5 C2.41476562 4.46375 1.82953125 3.9275 1.2265625 3.375 C0 2 0 2 0 0 Z " fill="#EAF5FA" transform="translate(858,602)"/>
<path d="M0 0 C8.25 0.99 16.5 1.98 25 3 C25 3.33 25 3.66 25 4 C23.35 4 21.7 4 20 4 C19.22757731 5.83700789 19.22757731 5.83700789 19 8 C20.35444301 9.77190909 20.35444301 9.77190909 22 11 C21.34 11.66 20.68 12.32 20 13 C18.96359375 12.57847656 17.9271875 12.15695312 16.859375 11.72265625 C15.48963909 11.16913284 14.11984432 10.61575506 12.75 10.0625 C12.06808594 9.78470703 11.38617188 9.50691406 10.68359375 9.22070312 C6.00980194 7.33757342 1.91623242 5.95010323 -3.109375 5.68359375 C-3.86347656 5.64169922 -4.61757813 5.59980469 -5.39453125 5.55664062 C-6.56048828 5.49766602 -6.56048828 5.49766602 -7.75 5.4375 C-8.54277344 5.39431641 -9.33554687 5.35113281 -10.15234375 5.30664062 C-12.10137815 5.20097009 -14.05066748 5.10002034 -16 5 C-16 4.67 -16 4.34 -16 4 C-8.08 3.505 -8.08 3.505 0 3 C0 2.01 0 1.02 0 0 Z " fill="#1F475F" transform="translate(424,635)"/>
<path d="M0 0 C-0.99 0.66 -1.98 1.32 -3 2 C0.96 2.33 4.92 2.66 9 3 C9 3.33 9 3.66 9 4 C8.03320312 4.03738281 7.06640625 4.07476563 6.0703125 4.11328125 C-7.43754733 4.7953613 -16.4748372 7.77201989 -28 15 C-28 14.34 -28 13.68 -28 13 C-28.99 12.67 -29.98 12.34 -31 12 C-28.67164951 10.55387606 -26.33783563 9.11814894 -24 7.6875 C-23.02740234 7.08131836 -23.02740234 7.08131836 -22.03515625 6.46289062 C-14.81986774 2.06942287 -8.5375814 -0.45737043 0 0 Z " fill="#E0EEF3" transform="translate(284,583)"/>
<path d="M0 0 C0.99 0.33 1.98 0.66 3 1 C2.01 1.495 2.01 1.495 1 2 C0.34227572 5.02934491 0.34227572 5.02934491 0 8 C0.7425 8.28875 1.485 8.5775 2.25 8.875 C4.56739797 9.82302644 6.77917115 10.84845911 9 12 C9 14.31 9 16.62 9 19 C9.66 19 10.32 19 11 19 C12.33895632 20.66215268 13.67130142 22.32963607 15 24 C16.63356951 25.37368345 18.2925002 26.71937515 20 28 C19.67 29.32 19.34 30.64 19 32 C18.33581055 31.29037109 18.33581055 31.29037109 17.65820312 30.56640625 C15.60685093 28.37630495 13.55343617 26.18814741 11.5 24 C10.45585938 22.88431641 10.45585938 22.88431641 9.390625 21.74609375 C4.68517876 16.73566489 -0.11016517 11.83060399 -5 7 C-4.34 6.67 -3.68 6.34 -3 6 C-3 4.68 -3 3.36 -3 2 C-2.01 1.34 -1.02 0.68 0 0 Z M8 9 C8.99 9.33 9.98 9.66 11 10 C10.34 10.66 9.68 11.32 9 12 C8.67 11.01 8.34 10.02 8 9 Z " fill="#295069" transform="translate(669,472)"/>
<path d="M0 0 C-2.0774633 2.26122812 -3.95149011 3.64459692 -6.73046875 4.9375 C-7.81231445 5.44410156 -7.81231445 5.44410156 -8.91601562 5.9609375 C-9.66560547 6.30382812 -10.41519531 6.64671875 -11.1875 7 C-11.91775391 7.34289062 -12.64800781 7.68578125 -13.40039062 8.0390625 C-27.3227143 14.50079643 -27.3227143 14.50079643 -34 14 C-32.375 11.9375 -32.375 11.9375 -30 10 C-26.75 10.25 -26.75 10.25 -24 11 C-24 9.02 -24 7.04 -24 5 C-23.01 5.33 -22.02 5.66 -21 6 C-21.33 4.68 -21.66 3.36 -22 2 C-19.03 3.485 -19.03 3.485 -16 5 C-15.67 4.34 -15.34 3.68 -15 3 C-12.66842508 2.65458149 -10.33491639 2.32205743 -8 2 C-4.77208445 -0.1519437 -3.71599191 -0.20086443 0 0 Z " fill="#1C455A" transform="translate(856,654)"/>
<path d="M0 0 C-3.96468648 1.75690028 -7.97273918 3.39334768 -12 5 C-12.66418945 5.27247559 -13.32837891 5.54495117 -14.01269531 5.82568359 C-26.22303659 10.7492083 -36.89684118 11.73859142 -50 11 C-49.67 10.01 -49.34 9.02 -49 8 C-49 8.66 -49 9.32 -49 10 C-46.36 9.67 -43.72 9.34 -41 9 C-40.67 8.01 -40.34 7.02 -40 6 C-40 6.66 -40 7.32 -40 8 C-37.03 8 -34.06 8 -31 8 C-30.67 7.34 -30.34 6.68 -30 6 C-30 6.66 -30 7.32 -30 8 C-28.05844468 7.60265845 -26.12177962 7.18136959 -24.1875 6.75 C-23.10855469 6.51796875 -22.02960937 6.2859375 -20.91796875 6.046875 C-17.57547504 4.84769386 -17.03740418 3.76583094 -15 1 C-12.44140625 0.13671875 -12.44140625 0.13671875 -9.5625 -0.3125 C-8.61503906 -0.47363281 -7.66757812 -0.63476562 -6.69140625 -0.80078125 C-4.14120896 -0.98954767 -2.40869598 -0.79151003 0 0 Z " fill="#154058" transform="translate(745,650)"/>
<path d="M0 0 C-0.33 2.31 -0.66 4.62 -1 7 C-3 7 -5 7 -7 7 C-7.99 7.495 -7.99 7.495 -9 8 C-9 8.99 -9 9.98 -9 11 C-9.99 11 -10.98 11 -12 11 C-12 11.66 -12 12.32 -12 13 C-12.99 13 -13.98 13 -15 13 C-15.33 13.66 -15.66 14.32 -16 15 C-17.65 14.67 -19.3 14.34 -21 14 C-19.44509365 9.47278967 -15.93623988 7.39526465 -12.1875 4.75 C-11.26227539 4.06164062 -11.26227539 4.06164062 -10.31835938 3.359375 C-6.80381849 0.84952221 -4.49258239 -0.65035478 0 0 Z " fill="#194864" transform="translate(185,593)"/>
<path d="M0 0 C2.475 0.495 2.475 0.495 5 1 C5 1.66 5 2.32 5 3 C8.98485578 3.84527244 12.9422098 4.6171896 17 5 C17.66 4.34 18.32 3.68 19 3 C19 4.32 19 5.64 19 7 C21.31309705 6.88658363 23.62550185 6.75896193 25.9375 6.625 C27.22527344 6.55539062 28.51304687 6.48578125 29.83984375 6.4140625 C30.88269531 6.27742187 31.92554688 6.14078125 33 6 C33.33 5.34 33.66 4.68 34 4 C34.66 4 35.32 4 36 4 C36 4.99 36 5.98 36 7 C36.99 7.33 37.98 7.66 39 8 C26.59625487 12.13458171 11.48510159 8.13217121 0 3 C0 2.01 0 1.02 0 0 Z " fill="#264960" transform="translate(782,661)"/>
<path d="M0 0 C1.98 0.66 3.96 1.32 6 2 C6 2.66 6 3.32 6 4 C6.99 4 7.98 4 9 4 C9 3.34 9 2.68 9 2 C11 3 11 3 13.75 5 C17.01650125 7.01015461 19.22652726 7.64062164 23 8 C23 8.66 23 9.32 23 10 C25.475 10.495 25.475 10.495 28 11 C28 11.33 28 11.66 28 12 C20.84572565 11.47902207 14.68842676 9.80995512 7.9375 7.4375 C6.97650391 7.10814453 6.01550781 6.77878906 5.02539062 6.43945312 C2.68060973 5.63452834 0.33908854 4.82128851 -2 4 C-2 3.34 -2 2.68 -2 2 C-1.34 2 -0.68 2 0 2 C0 1.34 0 0.68 0 0 Z " fill="#25485F" transform="translate(323,624)"/>
<path d="M0 0 C5.64102564 0.8974359 5.64102564 0.8974359 7.75 1.5 C10.90248085 2.2005513 14.02956968 2.3537684 17.25 2.5625 C18.51328125 2.64628906 19.7765625 2.73007812 21.078125 2.81640625 C22.04234375 2.87699219 23.0065625 2.93757812 24 3 C22.80859375 4.4921875 22.80859375 4.4921875 21 6 C18.66015625 6.2578125 18.66015625 6.2578125 16.0625 6.125 C12.76479547 5.9757826 10.18271786 6.17584358 7 7 C4.25 6.5625 4.25 6.5625 2 6 C2 5.34 2 4.68 2 4 C1.34 3.67 0.68 3.34 0 3 C0 2.01 0 1.02 0 0 Z " fill="#19455F" transform="translate(318,599)"/>
<path d="M0 0 C1.26169079 0.64426764 2.51693469 1.30250851 3.75 2 C3.42 2.99 3.09 3.98 2.75 5 C2.10675781 4.79503906 1.46351563 4.59007812 0.80078125 4.37890625 C-6.54976664 2.18737343 -13.60057967 1.35267598 -21.25 1 C-18.12016811 -5.25966378 -5.11645036 -2.29834199 0 0 Z " fill="#EDF6F8" transform="translate(301.25,585)"/>
<path d="M0 0 C1.485 0.99 1.485 0.99 3 2 C2.34 2 1.68 2 1 2 C4.67832017 6.52615993 8.41086363 10.39424999 13 14 C11.35 15.32 9.7 16.64 8 18 C6.31066078 16.3563186 4.64740076 14.6857124 3 13 C2.1028125 12.13375 2.1028125 12.13375 1.1875 11.25 C-0.70510228 7.66401673 -0.22923542 3.97341386 0 0 Z " fill="#12415B" transform="translate(857,600)"/>
<path d="M0 0 C5.80420355 3.33741704 9.71434147 7.90942084 14 13 C13.01 13.33 12.02 13.66 11 14 C11 13.34 11 12.68 11 12 C10.01 12.99 9.02 13.98 8 15 C8.66 15 9.32 15 10 15 C10 16.65 10 18.3 10 20 C7.20356382 16.57544124 5.25995711 12.81870229 3.3125 8.875 C2.83200195 7.92560547 2.83200195 7.92560547 2.34179688 6.95703125 C0 2.25346482 0 2.25346482 0 0 Z " fill="#EAF4F7" transform="translate(308,493)"/>
<path d="M0 0 C0 0.66 0 1.32 0 2 C-0.84425537 2.02187378 -0.84425537 2.02187378 -1.70556641 2.04418945 C-12.17463865 2.34607935 -22.11948808 2.7903617 -32.28515625 5.4765625 C-34.98475799 5.99706125 -36.44485046 5.91911854 -39 5 C-39 3.68 -39 2.36 -39 1 C-38.278125 1.185625 -37.55625 1.37125 -36.8125 1.5625 C-33.7906444 2.03256643 -31.97667842 1.59886312 -29 1 C-26.89416971 0.85656408 -24.78530311 0.75439352 -22.67578125 0.68359375 C-21.48275391 0.64169922 -20.28972656 0.59980469 -19.06054688 0.55664062 C-17.82369141 0.51732422 -16.58683594 0.47800781 -15.3125 0.4375 C-13.43981445 0.37272461 -13.43981445 0.37272461 -11.52929688 0.30664062 C-2.54910714 0 -2.54910714 0 0 0 Z " fill="#103A51" transform="translate(293,617)"/>
<path d="M0 0 C0.96228516 -0.01224609 1.92457031 -0.02449219 2.91601562 -0.03710938 C3.83447266 -0.03904297 4.75292969 -0.04097656 5.69921875 -0.04296875 C6.95545044 -0.04913208 6.95545044 -0.04913208 8.23706055 -0.05541992 C10.3125 0.1875 10.3125 0.1875 12.3125 2.1875 C11.45785156 2.23648438 10.60320313 2.28546875 9.72265625 2.3359375 C8.61792969 2.41070313 7.51320313 2.48546875 6.375 2.5625 C5.27285156 2.63210938 4.17070313 2.70171875 3.03515625 2.7734375 C1.68744141 2.97839844 1.68744141 2.97839844 0.3125 3.1875 C-0.0175 3.8475 -0.3475 4.5075 -0.6875 5.1875 C-8.01144366 5.46919014 -8.01144366 5.46919014 -11.6875 3.1875 C-12.43 2.81625 -13.1725 2.445 -13.9375 2.0625 C-14.515 1.77375 -15.0925 1.485 -15.6875 1.1875 C-10.42226998 0.00889263 -5.37367955 0.00364317 0 0 Z " fill="#355A73" transform="translate(623.6875,664.8125)"/>
<path d="M0 0 C0.66 0.33 1.32 0.66 2 1 C-6.63375318 10.88085087 -6.63375318 10.88085087 -10.3125 13.8125 C-13.05304975 15.88586088 -13.05304975 15.88586088 -15 18.5 C-16.69100085 20.61375107 -18.16283518 22.02459532 -20.25 23.6875 C-21.1575 24.450625 -22.065 25.21375 -23 26 C-23 26.66 -23 27.32 -23 28 C-23.66 28 -24.32 28 -25 28 C-25.33 28.66 -25.66 29.32 -26 30 C-26.66 29.34 -27.32 28.68 -28 28 C-18.76 18.76 -9.52 9.52 0 0 Z " fill="#DFEDF3" transform="translate(450,464)"/>
<path d="M0 0 C0.33 0.66 0.66 1.32 1 2 C0.05957031 3.9519043 0.05957031 3.9519043 -1.421875 6.32421875 C-1.95296875 7.18853516 -2.4840625 8.05285156 -3.03125 8.94335938 C-3.5984375 9.84892578 -4.165625 10.75449219 -4.75 11.6875 C-8.2672012 17.33720988 -11.58543735 22.78505178 -14 29 C-15.10844919 25.67465243 -14.84454356 23.37817425 -14 20 C-13.34 20 -12.68 20 -12 20 C-11.731875 18.906875 -11.46375 17.81375 -11.1875 16.6875 C-10.06861896 13.21307994 -9.53602446 12.30547678 -7 10 C-7 9.01 -7 8.02 -7 7 C-6.01 6.34 -5.02 5.68 -4 5 C-4 4.34 -4 3.68 -4 3 C-2 1.375 -2 1.375 0 0 Z " fill="#2A5165" transform="translate(394,525)"/>
<path d="M0 0 C-1 3 -1 3 -3.11328125 4.16796875 C-6.56562613 5.16302891 -9.5963632 5.30114762 -13.1875 5.3125 C-14.41855469 5.32925781 -15.64960938 5.34601562 -16.91796875 5.36328125 C-18.44357422 5.18345703 -18.44357422 5.18345703 -20 5 C-20.66 4.01 -21.32 3.02 -22 2 C-21.02417969 1.93941406 -20.04835937 1.87882813 -19.04296875 1.81640625 C-17.77066406 1.73261719 -16.49835938 1.64882813 -15.1875 1.5625 C-13.92292969 1.48128906 -12.65835938 1.40007813 -11.35546875 1.31640625 C-7.3725961 0.94083851 -4.04575601 -0.10934476 0 0 Z " fill="#EAF4F7" transform="translate(256,596)"/>
<path d="M0 0 C3.78804275 0.58745048 6.5949213 1.70903219 9.9375 3.5625 C13.9027654 5.62467369 16.48382574 6.32258388 21 6 C23.375 7 23.375 7 25 8 C24.67 8.99 24.34 9.98 24 11 C15.63019764 8.80148049 7.88172441 5.50929804 0 2 C0 1.34 0 0.68 0 0 Z " fill="#2C4C63" transform="translate(464,656)"/>
<path d="M0 0 C0.66 0.99 1.32 1.98 2 3 C1.01 3.495 1.01 3.495 0 4 C0.66 4.66 1.32 5.32 2 6 C1.01 7.98 0.02 9.96 -1 12 C-3.31 11.34 -5.62 10.68 -8 10 C-6.34908222 5.70761377 -3.26245434 3.1206085 0 0 Z " fill="#144461" transform="translate(846,596)"/>
<path d="M0 0 C2.62538284 0.14053872 5.25017427 0.28718947 7.875 0.4375 C8.99455078 0.49647461 8.99455078 0.49647461 10.13671875 0.55664062 C15.7734375 0.88671875 15.7734375 0.88671875 18 2 C18.33 1.34 18.66 0.68 19 0 C21.475 0.495 21.475 0.495 24 1 C23.67 1.99 23.34 2.98 23 4 C14.74447081 4.34937193 7.7629761 3.94397288 0 1 C0 0.67 0 0.34 0 0 Z " fill="#1D4158" transform="translate(670,657)"/>
<path d="M0 0 C1.175625 0.144375 2.35125 0.28875 3.5625 0.4375 C4.22378906 0.51871094 4.88507813 0.59992187 5.56640625 0.68359375 C7.35200851 0.9157507 9.13168984 1.19469933 10.90625 1.5 C16.87060904 2.35846372 22.92355746 2.37012953 28.9375 2.5625 C30.19369141 2.60568359 31.44988281 2.64886719 32.74414062 2.69335938 C35.82932968 2.79893619 38.91459263 2.90104551 42 3 C42 3.33 42 3.66 42 4 C37.58919646 4.02490464 33.17843129 4.04295604 28.76757812 4.05493164 C27.27017503 4.05992943 25.77277673 4.0667299 24.27539062 4.07543945 C22.11066495 4.08770623 19.94600435 4.09327397 17.78125 4.09765625 C15.8331543 4.10551147 15.8331543 4.10551147 13.84570312 4.11352539 C9.76091208 3.99294211 6.01849829 3.75252474 2 3 C1.34 2.01 0.68 1.02 0 0 Z " fill="#25485D" transform="translate(134,666)"/>
<path d="M0 0 C3.125 0.625 3.125 0.625 6 2 C7.12756159 4.49674352 7 6.23473727 7 9 C6.34 9 5.68 9 5 9 C4.34 8.34 3.68 7.68 3 7 C-0.08347826 6.83318891 -0.08347826 6.83318891 -3 7 C-3.1875 4.625 -3.1875 4.625 -3 2 C-2.01 1.34 -1.02 0.68 0 0 Z " fill="#11455E" transform="translate(219,593)"/>
<path d="M0 0 C-0.99 0.66 -1.98 1.32 -3 2 C0.96 2.33 4.92 2.66 9 3 C9 3.33 9 3.66 9 4 C7.98679687 4.06058594 6.97359375 4.12117187 5.9296875 4.18359375 C4.57811486 4.26806704 3.22655291 4.35271157 1.875 4.4375 C0.87726563 4.49647461 0.87726563 4.49647461 -0.140625 4.55664062 C-4.15018817 4.812152 -8.04994196 5.26782413 -12 6 C-12.33 4.68 -12.66 3.36 -13 2 C-8.50343896 -0.24828052 -4.92127034 -0.16682272 0 0 Z " fill="#CCDCE2" transform="translate(284,583)"/>
<path d="M0 0 C0.2475 0.61875 0.495 1.2375 0.75 1.875 C2.20628639 4.35068687 3.37812506 4.95125002 6 6 C6 4.68 6 3.36 6 2 C6.66 2 7.32 2 8 2 C8 3.65 8 5.3 8 7 C2.22192976 7.2358396 -2.51324804 6.86783046 -8 5 C-7.67 3.68 -7.34 2.36 -7 1 C-6.34 1.33 -5.68 1.66 -5 2 C-4.01 2.33 -3.02 2.66 -2 3 C-1.34 2.01 -0.68 1.02 0 0 Z " fill="#15425C" transform="translate(360,632)"/>
<path d="M0 0 C4.875 4.75 4.875 4.75 6 7 C5.67 7.99 5.34 8.98 5 10 C-0.53703704 9.51851852 -0.53703704 9.51851852 -2.5625 7.25 C-3 5 -3 5 -1.625 2.25 C-1.08875 1.5075 -0.5525 0.765 0 0 Z " fill="#194B6A" transform="translate(354,598)"/>
<path d="M0 0 C4.95 0 9.9 0 15 0 C15 0.99 15 1.98 15 3 C11.71303767 3.79953138 10.28976808 4.09658936 7 3 C6.67 3.66 6.34 4.32 6 5 C6 4.34 6 3.68 6 3 C3.69 3 1.38 3 -1 3 C-0.67 2.01 -0.34 1.02 0 0 Z " fill="#154261" transform="translate(278,587)"/>
<path d="M0 0 C-1.66751148 3.94139078 -4.22710649 6.7892812 -7 10 C-7.66 9.67 -8.32 9.34 -9 9 C-9.40729228 6.67843403 -9.74438677 4.3431213 -10 2 C-3.375 0 -3.375 0 0 0 Z " fill="#D9E7EE" transform="translate(851,589)"/>
<path d="M0 0 C2.33698777 0.3054281 4.61889779 0.33136745 6.97265625 0.2578125 C5.97265625 2.2578125 5.97265625 2.2578125 2.78515625 3.3828125 C-0.71106642 4.18522426 -3.46899427 4.58129882 -7.02734375 4.2578125 C-8.01734375 3.5978125 -9.00734375 2.9378125 -10.02734375 2.2578125 C-10.02734375 1.5978125 -10.02734375 0.9378125 -10.02734375 0.2578125 C-6.57521306 -1.03673651 -3.58738848 -0.52302112 0 0 Z " fill="#0E415F" transform="translate(183.02734375,649.7421875)"/>
<path d="M0 0 C-0.33 0.99 -0.66 1.98 -1 3 C-2.32 3 -3.64 3 -5 3 C-5.33 4.32 -5.66 5.64 -6 7 C-9.875 5.25 -9.875 5.25 -11 3 C-7.6562111 -0.84535724 -4.83651161 -1.55459302 0 0 Z " fill="#134161" transform="translate(800,624)"/>
<path d="M0 0 C1.48484412 0.39595843 2.9628831 0.81750706 4.4375 1.25 C5.26121094 1.48203125 6.08492188 1.7140625 6.93359375 1.953125 C9 3 9 3 9.78515625 5.109375 C9.85605469 5.73328125 9.92695313 6.3571875 10 7 C8.35 7.33 6.7 7.66 5 8 C4.67 7.01 4.34 6.02 4 5 C3.01 5 2.02 5 1 5 C0.67 3.35 0.34 1.7 0 0 Z " fill="#1D4862" transform="translate(384,623)"/>
<path d="M0 0 C4.77609498 1.64178265 8.79382904 4.26546702 13 7 C12.01 8.485 12.01 8.485 11 10 C7.37 8.02 3.74 6.04 0 4 C0 2.68 0 1.36 0 0 Z " fill="#E0EFF4" transform="translate(305,587)"/>
<path d="M0 0 C-0.66 0.66 -1.32 1.32 -2 2 C-2.33 2.66 -2.66 3.32 -3 4 C-7.29 3.67 -11.58 3.34 -16 3 C-13.43369922 1.28913281 -11.42554367 0.27355018 -8.5625 -0.75 C-7.80066406 -1.03359375 -7.03882813 -1.3171875 -6.25390625 -1.609375 C-3.48236249 -2.08971187 -2.33921011 -1.47066513 0 0 Z " fill="#2F546E" transform="translate(594,673)"/>
<path d="M0 0 C0.680625 0.33 1.36125 0.66 2.0625 1 C5.50840238 2.17307315 8.38397422 2.14180493 12 2 C11.67 3.65 11.34 5.3 11 7 C4.375 7.25 4.375 7.25 1 5 C2.65 4.67 4.3 4.34 6 4 C3.03 3.505 3.03 3.505 0 3 C0 2.01 0 1.02 0 0 Z " fill="#14435F" transform="translate(138,648)"/>
<path d="M0 0 C1.65 0 3.3 0 5 0 C5 0.66 5 1.32 5 2 C3.35 1.67 1.7 1.34 0 1 C0 0.67 0 0.34 0 0 Z M-5.6875 0.4375 C-4.08455078 0.59025391 -4.08455078 0.59025391 -2.44921875 0.74609375 C-1.23685547 0.87177734 -1.23685547 0.87177734 0 1 C-3.24629112 2.75065381 -5.29551125 3.18997378 -9 3 C-12.74161103 3 -16.28953557 3.51338171 -20 4 C-16.1250679 -0.69070728 -11.35319988 -0.12284394 -5.6875 0.4375 Z " fill="#15425D" transform="translate(736,636)"/>
<path d="M0 0 C3.34708051 1.54841575 6.24667512 3.49105864 9.25 5.625 C10.14203125 6.25664063 11.0340625 6.88828125 11.953125 7.5390625 C12.96632813 8.26222656 12.96632813 8.26222656 14 9 C13.01 9.495 13.01 9.495 12 10 C11.67 10.66 11.34 11.32 11 12 C9.16053461 10.38150935 7.32848583 8.75581169 5.5 7.125 C4.97535156 6.66480469 4.45070313 6.20460938 3.91015625 5.73046875 C2.56858245 4.52827924 1.28000815 3.26754054 0 2 C0 1.34 0 0.68 0 0 Z " fill="#C7DBE5" transform="translate(858,602)"/>
<path d="M0 0 C0.66 0 1.32 0 2 0 C2 0.99 2 1.98 2 3 C2.99 3.33 3.98 3.66 5 4 C1.44709436 5.18430188 -1.80250456 5.18397858 -5.5 5.1875 C-6.51513672 5.20586914 -6.51513672 5.20586914 -7.55078125 5.22460938 C-11.26357044 5.23559396 -12.82983076 5.11344616 -16 3 C-14.92878906 2.95101562 -13.85757813 2.90203125 -12.75390625 2.8515625 C-11.35674361 2.77654706 -9.9596095 2.7009987 -8.5625 2.625 C-7.85544922 2.5940625 -7.14839844 2.563125 -6.41992188 2.53125 C-4.60760812 2.42719371 -2.80182012 2.22080108 -1 2 C-0.67 1.34 -0.34 0.68 0 0 Z " fill="#164259" transform="translate(816,665)"/>
<path d="M0 0 C2.77109307 -0.05392397 5.54113818 -0.09363455 8.3125 -0.125 C9.09818359 -0.14175781 9.88386719 -0.15851562 10.69335938 -0.17578125 C11.45068359 -0.18222656 12.20800781 -0.18867187 12.98828125 -0.1953125 C13.68477783 -0.20578613 14.38127441 -0.21625977 15.09887695 -0.22705078 C17 0 17 0 20 2 C20 2.99 20 3.98 20 5 C14.72 4.67 9.44 4.34 4 4 C4 3.67 4 3.34 4 3 C7.63 3 11.26 3 15 3 C15 2.34 15 1.68 15 1 C10.05 1 5.1 1 0 1 C0 0.67 0 0.34 0 0 Z " fill="#D7E4E9" transform="translate(192,584)"/>
<path d="M0 0 C2.76276177 0.52268466 5.3260876 1.10869587 8 2 C10.22574335 2.22451458 12.45581519 2.40782878 14.6875 2.5625 C15.86699219 2.64628906 17.04648437 2.73007812 18.26171875 2.81640625 C19.61716797 2.90728516 19.61716797 2.90728516 21 3 C21 3.33 21 3.66 21 4 C17.37 4 13.74 4 10 4 C10 4.66 10 5.32 10 6 C6.05879291 5.43697042 3.2491277 4.3208055 0 2 C0 1.34 0 0.68 0 0 Z " fill="#D0E2E8" transform="translate(317,595)"/>
<path d="M0 0 C0.33 0.99 0.66 1.98 1 3 C1.66 3 2.32 3 3 3 C3.33 4.65 3.66 6.3 4 8 C-0.43076923 10.09230769 -0.43076923 10.09230769 -3.3125 9.625 C-3.869375 9.41875 -4.42625 9.2125 -5 9 C-5 8.01 -5 7.02 -5 6 C-4.360625 5.7525 -3.72125 5.505 -3.0625 5.25 C-0.81258459 4.18437567 -0.81258459 4.18437567 -0.25 1.875 C-0.1675 1.25625 -0.085 0.6375 0 0 Z " fill="#1D4B62" transform="translate(345,587)"/>
<path d="M0 0 C5.61 0 11.22 0 17 0 C17 0.66 17 1.32 17 2 C11.06 2.33 5.12 2.66 -1 3 C-0.67 2.01 -0.34 1.02 0 0 Z " fill="#F8FCFE" transform="translate(190,585)"/>
<path d="M0 0 C2.97 0.495 2.97 0.495 6 1 C5.67 2.65 5.34 4.3 5 6 C2.36 6.33 -0.28 6.66 -3 7 C-3 5.68 -3 4.36 -3 3 C-2.01 3 -1.02 3 0 3 C0 2.01 0 1.02 0 0 Z " fill="#114464" transform="translate(266,592)"/>
<path d="M0 0 C0.64066406 0.13277344 1.28132812 0.26554688 1.94140625 0.40234375 C6.94983993 1.42493006 11.93111794 2.33884147 17 3 C16 5 16 5 13.80078125 5.74609375 C10.39766336 6.05460513 8.34874682 5.31938127 5.1875 4.0625 C4.21167969 3.68222656 3.23585937 3.30195312 2.23046875 2.91015625 C1.49441406 2.60980469 0.75835937 2.30945313 0 2 C0 1.34 0 0.68 0 0 Z " fill="#32546A" transform="translate(127,649)"/>
<path d="M0 0 C-0.99 0.495 -0.99 0.495 -2 1 C-2.33 1.66 -2.66 2.32 -3 3 C-8.35008578 4.01467144 -12.66901216 3.99956022 -18 3 C-12.15069491 -0.24961394 -6.5246233 -0.12793379 0 0 Z " fill="#22475C" transform="translate(766,631)"/>
<path d="M0 0 C1.02577148 0.00676758 1.02577148 0.00676758 2.07226562 0.01367188 C3.73571604 0.0253044 5.3991205 0.04323306 7.0625 0.0625 C7.0625 0.3925 7.0625 0.7225 7.0625 1.0625 C6.0003125 1.18367187 4.938125 1.30484375 3.84375 1.4296875 C-3.2109828 2.25818519 -10.09843248 3.06777197 -16.9375 5.0625 C-16.375 3.125 -16.375 3.125 -14.9375 1.0625 C-9.9418078 0.05326925 -5.08365414 -0.04498809 0 0 Z " fill="#204B62" transform="translate(200.9375,581.9375)"/>
<path d="M0 0 C0.99 0.33 1.98 0.66 3 1 C2.67 1.99 2.34 2.98 2 4 C0.3733152 3.71788123 -1.25132896 3.42397625 -2.875 3.125 C-4.23238281 2.88136719 -4.23238281 2.88136719 -5.6171875 2.6328125 C-8 2 -8 2 -10 0 C-6.78455056 -1.60772472 -3.42887101 -0.61108592 0 0 Z " fill="#E4F3F5" transform="translate(901,625)"/>
<path d="M0 0 C5.50366792 -0.32374517 9.43672206 -0.53286034 14 3 C10.68929162 4.00109515 7.69915231 4.10356134 4.25 4.0625 C3.26515625 4.05347656 2.2803125 4.04445313 1.265625 4.03515625 C0.51796875 4.02355469 -0.2296875 4.01195312 -1 4 C-0.67 2.68 -0.34 1.36 0 0 Z " fill="#12445F" transform="translate(369,619)"/>
<path d="M0 0 C0.99 0.33 1.98 0.66 3 1 C3 2.32 3 3.64 3 5 C3.99 5 4.98 5 6 5 C6.28875 5.61875 6.5775 6.2375 6.875 6.875 C7.93720042 9.13325765 7.93720042 9.13325765 10 11 C10.625 13.125 10.625 13.125 11 15 C6.34470037 11.42732819 3.13686788 7.98208429 0 3 C0 2.01 0 1.02 0 0 Z " fill="#294D65" transform="translate(347,539)"/>
<path d="M0 0 C2.64 0.33 5.28 0.66 8 1 C1.96489539 6.78364191 -8.24912697 5.1162631 -16 5 C-16 4.67 -16 4.34 -16 4 C-8.08 3.505 -8.08 3.505 0 3 C0 2.01 0 1.02 0 0 Z " fill="#2C536C" transform="translate(424,635)"/>
<path d="M0 0 C4.22271781 2.53363068 6.78310162 4.56620325 9 9 C7.35 9.33 5.7 9.66 4 10 C3.32845067 8.71086513 2.66291141 7.41859796 2 6.125 C1.62875 5.40570313 1.2575 4.68640625 0.875 3.9453125 C0 2 0 2 0 0 Z " fill="#DFEBF1" transform="translate(308,493)"/>
<path d="M0 0 C0 0.99 0 1.98 0 3 C-7.625 5 -7.625 5 -11 5 C-11 4.01 -11 3.02 -11 2 C-9.54494642 1.47007308 -8.08581873 0.9513211 -6.625 0.4375 C-5.81289062 0.14746094 -5.00078125 -0.14257812 -4.1640625 -0.44140625 C-2 -1 -2 -1 0 0 Z " fill="#DFF1F6" transform="translate(134,617)"/>
<path d="M0 0 C-3.75 3.875 -3.75 3.875 -6 5 C-5.67 5.66 -5.34 6.32 -5 7 C-6.32 7 -7.64 7 -9 7 C-9.25 4.6875 -9.25 4.6875 -9 2 C-6.04897468 -1.27891703 -4.09533092 -1.25135112 0 0 Z " fill="#1B4964" transform="translate(160,611)"/>
<path d="M0 0 C0 1.32 0 2.64 0 4 C-0.99 4.33 -1.98 4.66 -3 5 C-5.6875 3.0625 -5.6875 3.0625 -8 1 C-4.93251126 -0.86240388 -3.40254489 -1.2151946 0 0 Z M-9 3 C-8.01 3 -7.02 3 -6 3 C-6 3.66 -6 4.32 -6 5 C-7.32 4.67 -8.64 4.34 -10 4 C-9.67 3.67 -9.34 3.34 -9 3 Z " fill="#144163" transform="translate(832,611)"/>
<path d="M0 0 C0.33 1.65 0.66 3.3 1 5 C-1.31 5 -3.62 5 -6 5 C-5.67 4.01 -5.34 3.02 -5 2 C-7.31 1.67 -9.62 1.34 -12 1 C-12 0.67 -12 0.34 -12 0 C-3.42857143 -1.28571429 -3.42857143 -1.28571429 0 0 Z " fill="#0F4263" transform="translate(252,602)"/>
<path d="M0 0 C0.66 0 1.32 0 2 0 C2.6708712 1.6232687 3.33657029 3.24867578 4 4.875 C4.556875 6.23238281 4.556875 6.23238281 5.125 7.6171875 C6 10 6 10 6 12 C5.34 12 4.68 12 4 12 C3.67 10.68 3.34 9.36 3 8 C1.68 7.67 0.36 7.34 -1 7 C-0.67 4.69 -0.34 2.38 0 0 Z " fill="#32526D" transform="translate(345,582)"/>
<path d="M0 0 C1.98 0.99 1.98 0.99 4 2 C4.66 1.34 5.32 0.68 6 0 C7.32 0.66 8.64 1.32 10 2 C9.1875 4.4375 9.1875 4.4375 8 7 C7.01 7.33 6.02 7.66 5 8 C2.525 4.04 2.525 4.04 0 0 Z " fill="#2C5570" transform="translate(740,568)"/>
<path d="M0 0 C0.66 0 1.32 0 2 0 C2 0.66 2 1.32 2 2 C3.32 1.67 4.64 1.34 6 1 C6.103125 2.051875 6.20625 3.10375 6.3125 4.1875 C6.97733415 7.87430754 7.88566296 9.96638599 10 13 C9.01 13.495 9.01 13.495 8 14 C6.66101601 12.04532248 5.32870953 10.0866421 4 8.125 C3.2575 7.03445313 2.515 5.94390625 1.75 4.8203125 C0 2 0 2 0 0 Z " fill="#305571" transform="translate(332,519)"/>
<path d="M0 0 C-0.66 1.32 -1.32 2.64 -2 4 C-6.62 4 -11.24 4 -16 4 C-12.867853 2.4339265 -10.75151188 1.5815406 -7.4375 0.875 C-6.67308594 0.70742188 -5.90867187 0.53984375 -5.12109375 0.3671875 C-3 0 -3 0 0 0 Z " fill="#395A73" transform="translate(568,679)"/>
<path d="M0 0 C2 1 2 1 3 3 C3.99 3.66 4.98 4.32 6 5 C6 5.66 6 6.32 6 7 C6.66 7 7.32 7 8 7 C8 7.66 8 8.32 8 9 C3.99541169 8.38390949 1.16980331 6.44939347 -2 4 C-2 3.01 -2 2.02 -2 1 C-1.34 0.67 -0.68 0.34 0 0 Z " fill="#1D445F" transform="translate(767,649)"/>
<path d="M0 0 C1.59521484 0.14695312 1.59521484 0.14695312 3.22265625 0.296875 C4.81400391 0.42835938 4.81400391 0.42835938 6.4375 0.5625 C9.28515625 1.046875 9.28515625 1.046875 12.28515625 3.046875 C6.05620539 4.17941152 1.36766721 3.75054126 -4.71484375 2.046875 C-2.71484375 0.046875 -2.71484375 0.046875 0 0 Z " fill="#274B61" transform="translate(496.71484375,666.953125)"/>
<path d="M0 0 C0 0.66 0 1.32 0 2 C-1.15628906 2.19916016 -1.15628906 2.19916016 -2.3359375 2.40234375 C-3.33882812 2.57894531 -4.34171875 2.75554688 -5.375 2.9375 C-6.87160156 3.19853516 -6.87160156 3.19853516 -8.3984375 3.46484375 C-10.96909656 3.87712062 -10.96909656 3.87712062 -13 5 C-15.125 4.0625 -15.125 4.0625 -17 3 C-11.10261508 0.70657253 -6.33393082 -0.34548714 0 0 Z " fill="#406078" transform="translate(876,665)"/>
<path d="M0 0 C4.12751449 0.60698743 7.3321148 2.03810791 11 4 C10.01 4.33 9.02 4.66 8 5 C7.67 5.66 7.34 6.32 7 7 C5.82780457 6.21654285 4.66236332 5.42297164 3.5 4.625 C2.8503125 4.18414063 2.200625 3.74328125 1.53125 3.2890625 C1.0259375 2.86367188 0.520625 2.43828125 0 2 C0 1.34 0 0.68 0 0 Z " fill="#E2EDF4" transform="translate(870,612)"/>
<path d="M0 0 C3.73487777 0.4979837 5.81237635 0.87491756 9 3 C9 3.99 9 4.98 9 6 C6.36 5.34 3.72 4.68 1 4 C0.67 2.68 0.34 1.36 0 0 Z " fill="#E6EFF2" transform="translate(211,586)"/>
<path d="M0 0 C2.97 0 5.94 0 9 0 C8.67 0.66 8.34 1.32 8 2 C6.35 2 4.7 2 3 2 C3 2.66 3 3.32 3 4 C3.66 4.33 4.32 4.66 5 5 C3.02 5.33 1.04 5.66 -1 6 C-0.67 4.02 -0.34 2.04 0 0 Z " fill="#1A4B6B" transform="translate(605,646)"/>
<path d="M0 0 C0 0.33 0 0.66 0 1 C-1.65 1 -3.3 1 -5 1 C-5.33 2.32 -5.66 3.64 -6 5 C-8.97 4.505 -8.97 4.505 -12 4 C-12.33 3.01 -12.66 2.02 -13 1 C-8.61414671 0.29826347 -4.44209357 -0.10834375 0 0 Z " fill="#1F4F6E" transform="translate(449,638)"/>
<path d="M0 0 C2.64 0 5.28 0 8 0 C8 0.66 8 1.32 8 2 C3.71702469 3.05619003 -0.42985646 3.11702092 -4.8125 3.0625 C-5.50537109 3.05798828 -6.19824219 3.05347656 -6.91210938 3.04882812 C-8.60811068 3.03713156 -10.30406703 3.01919924 -12 3 C-12 2.67 -12 2.34 -12 2 C-8.04 2 -4.08 2 0 2 C0 1.34 0 0.68 0 0 Z " fill="#0A3F5C" transform="translate(416,636)"/>
<path d="M0 0 C0.99 0.33 1.98 0.66 3 1 C2.01 1.495 2.01 1.495 1 2 C0.33280556 5.06909445 0 7.85786017 0 11 C-1.65 9.35 -3.3 7.7 -5 6 C-4.34 6 -3.68 6 -3 6 C-3 4.68 -3 3.36 -3 2 C-2.01 1.34 -1.02 0.68 0 0 Z " fill="#325979" transform="translate(669,472)"/>
<path d="M0 0 C4.69165109 2.97519337 8.84703191 6.31393365 13 10 C12.01 10.495 12.01 10.495 11 11 C4.42857143 7 4.42857143 7 3 3 C1.68 3 0.36 3 -1 3 C-0.67 2.01 -0.34 1.02 0 0 Z " fill="#E3F0F7" transform="translate(579,401)"/>
<path d="M0 0 C1.32 0.33 2.64 0.66 4 1 C4 1.66 4 2.32 4 3 C4.99 3.33 5.98 3.66 7 4 C6.34 4 5.68 4 5 4 C5 4.66 5 5.32 5 6 C-0.75 5.25 -0.75 5.25 -3 3 C-2.01 2.67 -1.02 2.34 0 2 C0 1.34 0 0.68 0 0 Z " fill="#1C425C" transform="translate(304,617)"/>
<path d="M0 0 C0 1.65 0 3.3 0 5 C-1.98 5.33 -3.96 5.66 -6 6 C-6.33 4.35 -6.66 2.7 -7 1 C-4 0 -4 0 0 0 Z " fill="#1B4962" transform="translate(816,617)"/>
<path d="M0 0 C3.63 0 7.26 0 11 0 C10.34 1.32 9.68 2.64 9 4 C9.99 4.33 10.98 4.66 12 5 C11.67 5.66 11.34 6.32 11 7 C7.37 5.02 3.74 3.04 0 1 C0 0.67 0 0.34 0 0 Z " fill="#2D5570" transform="translate(215,586)"/>
<path d="M0 0 C6.75 0.875 6.75 0.875 9 2 C9 2.99 9 3.98 9 5 C3.5 5.36666667 3.5 5.36666667 1.125 3.625 C0 2 0 2 0 0 Z " fill="#1D455C" transform="translate(889,626)"/>
<path d="M0 0 C2.31 0.33 4.62 0.66 7 1 C7 1.99 7 2.98 7 4 C6.34 4.66 5.68 5.32 5 6 C4.01 6 3.02 6 2 6 C0 1.125 0 1.125 0 0 Z " fill="#194764" transform="translate(304,592)"/>
<path d="M0 0 C3.9492568 0.55105909 7.34920174 1.38935371 11 3 C7.67465243 4.10844919 5.37817425 3.84454356 2 3 C1.67 5.97 1.34 8.94 1 12 C0.67 12 0.34 12 0 12 C0 8.04 0 4.08 0 0 Z " fill="#BDD3DE" transform="translate(124,650)"/>
<path d="M0 0 C6.52307692 0.61538462 6.52307692 0.61538462 8.9375 2.5625 C9.288125 3.036875 9.63875 3.51125 10 4 C7.69 4.33 5.38 4.66 3 5 C2.01 3.35 1.02 1.7 0 0 Z " fill="#1C4966" transform="translate(367,615)"/>
<path d="M0 0 C6.93 0.495 6.93 0.495 14 1 C10.12912299 3.90315776 8.64554253 4.69702983 4 5 C3.34 4.34 2.68 3.68 2 3 C1.34 3 0.68 3 0 3 C0 2.01 0 1.02 0 0 Z " fill="#2B536C" transform="translate(234,600)"/>
<path d="M0 0 C1.32 0.66 2.64 1.32 4 2 C-0.17407893 6.17407893 -4.32102701 6.4321027 -10 7 C-2.5 2 -2.5 2 0 2 C0 1.34 0 0.68 0 0 Z " fill="#2D546D" transform="translate(351,595)"/>
<path d="M0 0 C4.62 0 9.24 0 14 0 C14 0.66 14 1.32 14 2 C10.58524944 3.13825019 9.4490642 2.70549041 6 2 C3.66698014 1.96175377 1.33288492 1.95425716 -1 2 C-0.67 1.34 -0.34 0.68 0 0 Z " fill="#1C465D" transform="translate(192,588)"/>
<path d="M0 0 C-2.64960955 3.63094642 -5.01824456 5.89851796 -9 8 C-9 4 -9 4 -7.3125 1.75 C-4.60609252 -0.29809215 -3.31152874 -0.36794764 0 0 Z " fill="#265164" transform="translate(464,452)"/>
<path d="M0 0 C0.66 0.33 1.32 0.66 2 1 C-4.66098081 7.96375267 -4.66098081 7.96375267 -8 9 C-8.99 8.67 -9.98 8.34 -11 8 C-7.37 5.36 -3.74 2.72 0 0 Z " fill="#E2F0F4" transform="translate(500,425)"/>
<path d="M0 0 C0 0.99 0 1.98 0 3 C-0.78375 3.309375 -1.5675 3.61875 -2.375 3.9375 C-4.92330128 4.92875038 -4.92330128 4.92875038 -7 6 C-8.67654729 5.72057545 -10.34608154 5.39171753 -12 5 C-9.9330412 2.9330412 -8.69369158 2.35542451 -6 1.375 C-5.29875 1.11460937 -4.5975 0.85421875 -3.875 0.5859375 C-2 0 -2 0 0 0 Z " fill="#35576F" transform="translate(215,657)"/>
<path d="M0 0 C2.96404505 2.80804268 5.44499019 5.18315774 7 9 C6.01 9.33 5.02 9.66 4 10 C3.896875 9.360625 3.79375 8.72125 3.6875 8.0625 C3.3471875 7.0415625 3.3471875 7.0415625 3 6 C2.01 5.67 1.02 5.34 0 5 C-0.75 3 -0.75 3 -1 1 C-0.67 0.67 -0.34 0.34 0 0 Z " fill="#E3EEF0" transform="translate(729,554)"/>
<path d="M0 0 C1.65 0.99 3.3 1.98 5 3 C4.67 3.99 4.34 4.98 4 6 C2.68 6 1.36 6 0 6 C0 6.66 0 7.32 0 8 C-0.66 8 -1.32 8 -2 8 C-2 6.35 -2 4.7 -2 3 C-1.01 3.33 -0.02 3.66 1 4 C0.67 2.68 0.34 1.36 0 0 Z " fill="#0E4566" transform="translate(834,656)"/>
<path d="M0 0 C0.33 0 0.66 0 1 0 C1.06058594 0.71285156 1.12117188 1.42570313 1.18359375 2.16015625 C1.64808101 7.46960288 2.18075251 12.733409 3 18 C2.01 17.34 1.02 16.68 0 16 C-0.22107787 13.2114711 -0.28107535 10.65346819 -0.1875 7.875 C-0.17396484 7.12089844 -0.16042969 6.36679687 -0.14648438 5.58984375 C-0.11109985 3.72625873 -0.05729167 1.86304022 0 0 Z " fill="#D5E5EC" transform="translate(505,568)"/>
<path d="M0 0 C1.98 0 3.96 0 6 0 C6 0.66 6 1.32 6 2 C4.68 2 3.36 2 2 2 C2.33 3.32 2.66 4.64 3 6 C0.525 5.01 0.525 5.01 -2 4 C-1.34 2.68 -0.68 1.36 0 0 Z " fill="#14405B" transform="translate(778,656)"/>
<path d="M0 0 C0 0.66 0 1.32 0 2 C0.66 2.33 1.32 2.66 2 3 C-1.96 3 -5.92 3 -10 3 C-9.67 2.34 -9.34 1.68 -9 1 C-5.85554549 0.15014743 -3.29227921 0 0 0 Z " fill="#193D54" transform="translate(756,646)"/>
<path d="M0 0 C0 1.32 0 2.64 0 4 C-0.66 3.67 -1.32 3.34 -2 3 C-2.99 3.33 -3.98 3.66 -5 4 C-5.66 2.68 -6.32 1.36 -7 0 C-4.3333581 -1.33332095 -2.83319697 -0.67102033 0 0 Z " fill="#164560" transform="translate(879,619)"/>
<path d="M0 0 C3.96 1.98 3.96 1.98 8 4 C5.38058783 5.74627478 3.96175123 6.38722388 1 7 C0.34 5.02 -0.32 3.04 -1 1 C-0.67 0.67 -0.34 0.34 0 0 Z " fill="#0F455B" transform="translate(361,609)"/>
<path d="M0 0 C0 0.99 0 1.98 0 3 C-3.3 3.33 -6.6 3.66 -10 4 C-6.58908673 0.88145073 -4.68377325 -0.53528837 0 0 Z " fill="#295576" transform="translate(335,594)"/>
<path d="M0 0 C2.97595467 2.55081829 4.44002566 5.43434437 6 9 C6 9.99 6 10.98 6 12 C5.01 11.67 4.02 11.34 3 11 C2.87625 10.030625 2.7525 9.06125 2.625 8.0625 C2.41875 7.051875 2.2125 6.04125 2 5 C1.34 4.67 0.68 4.34 0 4 C0 2.68 0 1.36 0 0 Z " fill="#38576B" transform="translate(656,491)"/>
<path d="M0 0 C2.31 0.33 4.62 0.66 7 1 C4.44931155 3.35448165 3.28982642 3.98327924 -0.25 4.1875 C-1.1575 4.125625 -2.065 4.06375 -3 4 C-2.01 2.68 -1.02 1.36 0 0 Z " fill="#143E53" transform="translate(825,664)"/>
<path d="M0 0 C0.66 0.33 1.32 0.66 2 1 C1.979375 1.763125 1.95875 2.52625 1.9375 3.3125 C1.87057159 6.10185786 1.87057159 6.10185786 3 9 C2.34 9 1.68 9 1 9 C1 8.34 1 7.68 1 7 C0.34 7 -0.32 7 -1 7 C-1.66 5.68 -2.32 4.36 -3 3 C-2.01 2.01 -1.02 1.02 0 0 Z " fill="#235479" transform="translate(333,512)"/>
<path d="M0 0 C0.33 0 0.66 0 1 0 C0.67 3.63 0.34 7.26 0 11 C-0.99 11 -1.98 11 -3 11 C-2.69217504 9.35328588 -2.37860766 7.70764424 -2.0625 6.0625 C-1.88847656 5.14597656 -1.71445312 4.22945313 -1.53515625 3.28515625 C-1 1 -1 1 0 0 Z " fill="#32536B" transform="translate(519,435)"/>
<path d="M0 0 C5.00890086 0.61512818 10.00632136 1.2717552 15 2 C15 2.33 15 2.66 15 3 C12.87561661 3.08078641 10.7503677 3.13909141 8.625 3.1875 C7.44164062 3.22230469 6.25828125 3.25710938 5.0390625 3.29296875 C3.53472656 3.14794922 3.53472656 3.14794922 2 3 C1.34 2.01 0.68 1.02 0 0 Z " fill="#2F5065" transform="translate(134,666)"/>
<path d="M0 0 C0.66 0.33 1.32 0.66 2 1 C1.01 2.98 0.02 4.96 -1 7 C-3.475 6.01 -3.475 6.01 -6 5 C-5.195625 4.360625 -4.39125 3.72125 -3.5625 3.0625 C-1.7249496 1.59396498 -1.7249496 1.59396498 0 0 Z " fill="#E6F1F5" transform="translate(514,416)"/>
<path d="M0 0 C0 0.66 0 1.32 0 2 C0.99 2.33 1.98 2.66 3 3 C1.68 3 0.36 3 -1 3 C-1 3.66 -1 4.32 -1 5 C-1.99 5 -2.98 5 -4 5 C-4 4.01 -4 3.02 -4 2 C-4.66 1.67 -5.32 1.34 -6 1 C-3 0 -3 0 0 0 Z " fill="#335C74" transform="translate(252,642)"/>
<path d="M0 0 C0.99 0 1.98 0 3 0 C3 0.66 3 1.32 3 2 C3.99 2.33 4.98 2.66 6 3 C4.02 3.99 4.02 3.99 2 5 C0.68 4.01 -0.64 3.02 -2 2 C-1.34 1.34 -0.68 0.68 0 0 Z " fill="#2C5771" transform="translate(890,618)"/>
<path d="M0 0 C1.3125 2.0625 1.3125 2.0625 2 4 C1.443125 3.855625 0.88625 3.71125 0.3125 3.5625 C-2.11384195 2.97230872 -4.54906345 2.476571 -7 2 C-7 1.34 -7 0.68 -7 0 C-4.25509788 -1.37245106 -2.87939419 -0.93580311 0 0 Z " fill="#1C4764" transform="translate(866,610)"/>
<path d="M0 0 C0.99 0 1.98 0 3 0 C3.268125 0.61875 3.53625 1.2375 3.8125 1.875 C4.95556848 4.2995233 4.95556848 4.2995233 8 6 C7.67 6.99 7.34 7.98 7 9 C4.03595495 6.19195732 1.55500981 3.81684226 0 0 Z " fill="#2F5673" transform="translate(714,533)"/>
<path d="M0 0 C0.33 0.99 0.66 1.98 1 3 C-1.31 4.98 -3.62 6.96 -6 9 C-6.66 8.34 -7.32 7.68 -8 7 C-7.34 6.34 -6.68 5.68 -6 5 C-5.34 5 -4.68 5 -4 5 C-3.34 4.01 -2.68 3.02 -2 2 C-1.34 2 -0.68 2 0 2 C0 1.34 0 0.68 0 0 Z " fill="#1F4C62" transform="translate(428,483)"/>
<path d="M0 0 C3.55780196 0.60990891 6.6828589 1.5783681 10 3 C9.67 3.66 9.34 4.32 9 5 C6.03 4.01 3.06 3.02 0 2 C0 1.34 0 0.68 0 0 Z " fill="#26475D" transform="translate(464,656)"/>
<path d="M0 0 C2.4375 0.375 2.4375 0.375 5 1 C5.33 1.66 5.66 2.32 6 3 C6.66 3.33 7.32 3.66 8 4 C7.01 4.66 6.02 5.32 5 6 C3.2925002 4.71937515 1.62626404 3.38232443 0 2 C0 1.34 0 0.68 0 0 Z " fill="#254A63" transform="translate(860,601)"/>
<path d="M0 0 C0.66 0 1.32 0 2 0 C1.125 4.875 1.125 4.875 0 6 C-1.99958364 6.04080783 -4.00045254 6.04254356 -6 6 C-6 5.34 -6 4.68 -6 4 C-4.35 3.67 -2.7 3.34 -1 3 C-0.67 2.01 -0.34 1.02 0 0 Z " fill="#355469" transform="translate(376,558)"/>
<path d="M0 0 C0.66 0.66 1.32 1.32 2 2 C1.9765625 4.1640625 1.9765625 4.1640625 1.625 6.625 C1.51414062 7.44226563 1.40328125 8.25953125 1.2890625 9.1015625 C1.19367187 9.72804688 1.09828125 10.35453125 1 11 C0.34 10.34 -0.32 9.68 -1 9 C-0.9765625 6.8359375 -0.9765625 6.8359375 -0.625 4.375 C-0.51414062 3.55773437 -0.40328125 2.74046875 -0.2890625 1.8984375 C-0.19367187 1.27195312 -0.09828125 0.64546875 0 0 Z " fill="#355973" transform="translate(514,453)"/>
<path d="M0 0 C-1.125 1.5 -1.125 1.5 -3 3 C-6.1875 3.1875 -6.1875 3.1875 -9 3 C-9 2.34 -9 1.68 -9 1 C-6.04335481 -0.4783226 -3.25770263 -0.06032783 0 0 Z " fill="#244A61" transform="translate(612,667)"/>
<path d="M0 0 C2.97 0.495 2.97 0.495 6 1 C5.67 1.99 5.34 2.98 5 4 C2.03 4 -0.94 4 -4 4 C-2.68 3.34 -1.36 2.68 0 2 C0 1.34 0 0.68 0 0 Z " fill="#0C3955" transform="translate(688,657)"/>
<path d="M0 0 C0.33 0.66 0.66 1.32 1 2 C2.64363134 2.72159424 4.31050386 3.39351421 6 4 C6 4.66 6 5.32 6 6 C2.08788267 4.84414715 -0.8745041 3.64465038 -4 1 C-2 0 -2 0 0 0 Z " fill="#25465C" transform="translate(454,649)"/>
<path d="M0 0 C1.65 0.33 3.3 0.66 5 1 C5 1.99 5 2.98 5 4 C3.35 4.33 1.7 4.66 0 5 C-0.33 4.34 -0.66 3.68 -1 3 C-0.34 2.67 0.32 2.34 1 2 C0.67 1.34 0.34 0.68 0 0 Z " fill="#164258" transform="translate(389,626)"/>
<path d="M0 0 C0.66 0 1.32 0 2 0 C2 0.99 2 1.98 2 3 C2.99 2.67 3.98 2.34 5 2 C5.66 2.66 6.32 3.32 7 4 C4.525 5.485 4.525 5.485 2 7 C0.5393715 4.35261084 0 3.10551666 0 0 Z " fill="#104262" transform="translate(232,600)"/>
<path d="M0 0 C0.66 0.33 1.32 0.66 2 1 C1.67 3.64 1.34 6.28 1 9 C-1 8 -1 8 -3 5 C-2.01 3.35 -1.02 1.7 0 0 Z " fill="#15435E" transform="translate(354,598)"/>
<path d="M0 0 C0.66 0.66 1.32 1.32 2 2 C1.34 2 0.68 2 0 2 C0 2.66 0 3.32 0 4 C-1.98 4.99 -1.98 4.99 -4 6 C-4.99 5.01 -5.98 4.02 -7 3 C-4.69 2.01 -2.38 1.02 0 0 Z " fill="#CDDFE4" transform="translate(351,593)"/>
<path d="M0 0 C1.5625 1.75 1.5625 1.75 3 4 C2.6875 6.25 2.6875 6.25 2 8 C1.67 7.34 1.34 6.68 1 6 C0.34 6 -0.32 6 -1 6 C-1.042721 4.33388095 -1.04063832 2.66617115 -1 1 C-0.67 0.67 -0.34 0.34 0 0 Z " fill="#35586D" transform="translate(331,547)"/>
<path d="M0 0 C2.31 0 4.62 0 7 0 C5.1875 2 5.1875 2 3 4 C2.01 4 1.02 4 0 4 C0 2.68 0 1.36 0 0 Z " fill="#2D546E" transform="translate(467,444)"/>
<path d="M0 0 C0.598125 0.33 1.19625 0.66 1.8125 1 C4.05386471 2.20787988 4.05386471 2.20787988 7 2 C7.66 3.32 8.32 4.64 9 6 C8.01 6.33 7.02 6.66 6 7 C2.8125 4.6875 2.8125 4.6875 0 2 C0 1.34 0 0.68 0 0 Z " fill="#2D546F" transform="translate(581,401)"/>
<path d="M0 0 C-0.66 1.32 -1.32 2.64 -2 4 C-2 3.34 -2 2.68 -2 2 C-4.31 2 -6.62 2 -9 2 C-4.13793103 -1.24137931 -4.13793103 -1.24137931 0 0 Z " fill="#2C5168" transform="translate(810,620)"/>
<path d="M0 0 C2.64 0 5.28 0 8 0 C4.8745041 2.64465038 1.91211733 3.84414715 -2 5 C-1.34 3.35 -0.68 1.7 0 0 Z " fill="#2C5870" transform="translate(142,609)"/>
<path d="M0 0 C1.32 0.33 2.64 0.66 4 1 C3.34 1 2.68 1 2 1 C1.71125 1.639375 1.4225 2.27875 1.125 2.9375 C0 5 0 5 -2 6 C-2.66 5.34 -3.32 4.68 -4 4 C-3.01 3.67 -2.02 3.34 -1 3 C-0.67 2.01 -0.34 1.02 0 0 Z " fill="#134467" transform="translate(257,597)"/>
<path d="M0 0 C2.50298434 2.93828597 3.46930939 5.17902761 4 9 C3.34 9 2.68 9 2 9 C0.4375 6.1875 0.4375 6.1875 -1 3 C-0.67 2.01 -0.34 1.02 0 0 Z " fill="#3D5C6D" transform="translate(325,532)"/>
<path d="M0 0 C0.33 1.32 0.66 2.64 1 4 C0.01 4 -0.98 4 -2 4 C-2.66 4.66 -3.32 5.32 -4 6 C-4.33 4.35 -4.66 2.7 -5 1 C-3.35 0.67 -1.7 0.34 0 0 Z " fill="#244A62" transform="translate(311,490)"/>
<path d="M0 0 C0.66 0 1.32 0 2 0 C3.2890625 1.75 3.2890625 1.75 4.625 4 C5.07101562 4.7425 5.51703125 5.485 5.9765625 6.25 C6.31429687 6.8275 6.65203125 7.405 7 8 C6.01 8 5.02 8 4 8 C3.896875 7.360625 3.79375 6.72125 3.6875 6.0625 C3.460625 5.381875 3.23375 4.70125 3 4 C2.01 3.67 1.02 3.34 0 3 C0 2.01 0 1.02 0 0 Z " fill="#395A6E" transform="translate(648,480)"/>
<path d="M0 0 C0.99 0.33 1.98 0.66 3 1 C3 1.99 3 2.98 3 4 C2.01 4.33 1.02 4.66 0 5 C-0.99 4.01 -1.98 3.02 -3 2 C-2.01 1.34 -1.02 0.68 0 0 Z " fill="#25547A" transform="translate(771,674)"/>
<path d="M0 0 C-0.33 0.66 -0.66 1.32 -1 2 C-3.875 2.125 -3.875 2.125 -7 2 C-7.66 1.34 -8.32 0.68 -9 0 C-5.67465243 -1.10844919 -3.37817425 -0.84454356 0 0 Z " fill="#365B79" transform="translate(198,665)"/>
<path d="M0 0 C2.475 0.495 2.475 0.495 5 1 C5 1.66 5 2.32 5 3 C5.99 3.33 6.98 3.66 8 4 C2.25 4.125 2.25 4.125 0 3 C0 2.01 0 1.02 0 0 Z " fill="#1B435B" transform="translate(782,661)"/>
<path d="M0 0 C5.75 -0.125 5.75 -0.125 8 1 C8 1.66 8 2.32 8 3 C6.02 3 4.04 3 2 3 C2 2.34 2 1.68 2 1 C1.34 0.67 0.68 0.34 0 0 Z " fill="#264D67" transform="translate(418,657)"/>
<path d="M0 0 C0 0.99 0 1.98 0 3 C-2.31 3 -4.62 3 -7 3 C-7.33 2.01 -7.66 1.02 -8 0 C-5.13822943 -1.43088528 -3.06624227 -0.59991697 0 0 Z " fill="#0C425D" transform="translate(225,633)"/>
<path d="M0 0 C2.97 0.495 2.97 0.495 6 1 C6 1.99 6 2.98 6 4 C4.35 4 2.7 4 1 4 C0.67 2.68 0.34 1.36 0 0 Z " fill="#104062" transform="translate(782,627)"/>
<path d="M0 0 C2.9375 1.1875 2.9375 1.1875 3.9375 3.1875 C0.20262223 2.6895163 -1.87487635 2.31258244 -5.0625 0.1875 C-3.0625 -0.8125 -3.0625 -0.8125 0 0 Z " fill="#D9E7EC" transform="translate(398.0625,625.8125)"/>
<path d="M0 0 C1.65 0.33 3.3 0.66 5 1 C4.67 1.99 4.34 2.98 4 4 C1.69 3.67 -0.62 3.34 -3 3 C-2.01 2.67 -1.02 2.34 0 2 C0 1.34 0 0.68 0 0 Z " fill="#C2DCE7" transform="translate(899,625)"/>
<path d="M0 0 C0 4.38968456 -2.12805101 5.76905739 -5 9 C-5.66 8.67 -6.32 8.34 -7 8 C-4.69 5.36 -2.38 2.72 0 0 Z " fill="#E0EDF2" transform="translate(414,502)"/>
<path d="M0 0 C0.99 0 1.98 0 3 0 C3.33 0.99 3.66 1.98 4 3 C4.66 3.66 5.32 4.32 6 5 C5.01 5.33 4.02 5.66 3 6 C1.68 4.35 0.36 2.7 -1 1 C-0.67 0.67 -0.34 0.34 0 0 Z " fill="#ECF1F5" transform="translate(631,458)"/>
<path d="M0 0 C3.7952131 1.49097658 5.61042731 3.75700849 8 7 C7.01 7.495 7.01 7.495 6 8 C5.566875 7.360625 5.13375 6.72125 4.6875 6.0625 C3.08760823 3.73253997 3.08760823 3.73253997 0 3 C0 2.01 0 1.02 0 0 Z " fill="#294C65" transform="translate(611,443)"/>
<path d="M0 0 C0.66 0 1.32 0 2 0 C2 1.32 2 2.64 2 4 C2.66 4.66 3.32 5.32 4 6 C1 6 1 6 -2 4 C-2 3.34 -2 2.68 -2 2 C-1.34 2 -0.68 2 0 2 C0 1.34 0 0.68 0 0 Z " fill="#335975" transform="translate(564,384)"/>
<path d="M0 0 C-0.33 0.66 -0.66 1.32 -1 2 C-3.64860427 2.59355614 -6.29197322 2.74209269 -9 3 C-7.14340032 -0.71319936 -3.69365381 -0.09982848 0 0 Z " fill="#183C51" transform="translate(190,650)"/>
<path d="M0 0 C0 0.33 0 0.66 0 1 C-3.63 0.67 -7.26 0.34 -11 0 C-11 -0.33 -11 -0.66 -11 -1 C-3.57142857 -2.42857143 -3.57142857 -2.42857143 0 0 Z " fill="#CADAE4" transform="translate(432,635)"/>
<path d="M0 0 C2.64 0.33 5.28 0.66 8 1 C8 1.99 8 2.98 8 4 C5.03 3.505 5.03 3.505 2 3 C2 2.34 2 1.68 2 1 C1.34 0.67 0.68 0.34 0 0 Z " fill="#1A415D" transform="translate(136,619)"/>
<path d="M0 0 C0.66 0.33 1.32 0.66 2 1 C2 1.99 2 2.98 2 4 C0.35 4.33 -1.3 4.66 -3 5 C-3 3.68 -3 2.36 -3 1 C-2.01 0.67 -1.02 0.34 0 0 Z " fill="#CADDE3" transform="translate(132,616)"/>
<path d="M0 0 C0.99 0 1.98 0 3 0 C3 0.66 3 1.32 3 2 C3.66 2 4.32 2 5 2 C5.33 3.65 5.66 5.3 6 7 C1.125 3.375 1.125 3.375 0 0 Z " fill="#2D5166" transform="translate(691,506)"/>
<path d="M0 0 C2.99332739 0.9977758 3.94766315 1.7522025 6 4 C5.67 4.99 5.34 5.98 5 7 C3.29115995 5.37660195 1.62553283 3.70680947 0 2 C0 1.34 0 0.68 0 0 Z " fill="#335065" transform="translate(669,482)"/>
</svg>
